<?xml version="1.0" standalone="no"?>
<!DOCTYPE svg PUBLIC "-//W3C//DTD SVG 20010904//EN"
 "http://www.w3.org/TR/2001/REC-SVG-20010904/DTD/svg10.dtd">
<svg version="1.0" xmlns="http://www.w3.org/2000/svg"
 width="640.000000pt" height="640.000000pt" viewBox="0 0 640.000000 640.000000"
 preserveAspectRatio="xMidYMid meet">
<metadata>
Created by potrace 1.15, written by Peter Selinger 2001-2017
</metadata>
<g transform="translate(0.000000,640.000000) scale(0.100000,-0.100000)"
fill="#000000" stroke="none">
<path d="M2489 6358 c-112 -92 -156 -196 -169 -403 -5 -71 -14 -418 -20 -770
-22 -1325 -30 -1609 -46 -1625 -12 -12 -16 -12 -23 -2 -4 7 -11 109 -15 225
-4 117 -13 376 -22 577 -8 201 -17 547 -19 770 -5 451 -7 487 -37 615 -24 105
-66 196 -113 248 -41 45 -83 53 -185 38 -163 -26 -282 -134 -324 -295 -18 -67
-25 -277 -67 -1950 -8 -342 -13 -435 -25 -458 -18 -34 -46 -36 -68 -4 -14 22
-16 116 -19 868 -3 823 -3 845 -24 923 -29 109 -55 164 -92 200 -28 26 -40 30
-104 33 -91 5 -147 -10 -193 -50 -51 -45 -80 -95 -93 -158 -6 -30 -18 -228
-26 -440 -24 -591 -48 -1070 -95 -1935 -39 -698 -44 -850 -32 -979 34 -368
156 -704 347 -957 264 -351 669 -581 1185 -675 134 -24 158 -26 355 -21 178 4
227 9 320 30 355 83 630 229 931 495 162 144 331 350 364 446 23 68 66 153
117 236 53 85 189 266 239 320 114 122 234 307 284 439 10 25 30 80 46 121 73
195 276 422 571 641 152 113 223 195 269 314 23 61 27 221 5 275 -62 157 -78
174 -194 204 -262 68 -525 -13 -740 -230 -101 -102 -204 -255 -241 -359 -16
-44 -33 -85 -38 -91 -4 -6 -19 -32 -33 -58 -66 -124 -261 -320 -359 -361 -193
-81 -289 298 -257 1012 9 199 11 544 7 1213 -5 1030 -2 977 -68 1103 -42 78
-93 122 -157 136 -67 14 -85 14 -149 -3 -103 -28 -182 -112 -228 -246 -39
-110 -42 -153 -59 -660 -8 -256 -22 -694 -31 -975 -15 -473 -18 -512 -36 -542
-25 -42 -51 -42 -71 0 -14 29 -16 173 -21 1237 -3 854 -8 1222 -16 1265 -17
86 -71 196 -125 254 l-48 51 -153 0 -153 0 -52 -42z m305 22 c65 -24 148 -146
175 -255 7 -27 16 -66 21 -85 4 -19 9 -566 9 -1215 1 -842 5 -1191 13 -1218
12 -41 52 -87 75 -87 27 0 53 21 77 63 23 40 24 52 30 282 4 132 13 445 21
695 8 250 17 550 20 665 7 239 21 421 37 480 26 96 109 235 141 235 5 0 16 8
23 18 10 14 29 17 122 17 104 0 112 -2 137 -25 42 -40 84 -122 104 -206 18
-75 19 -133 20 -1024 1 -596 -2 -1035 -10 -1187 -21 -453 21 -806 114 -944 38
-56 77 -76 145 -75 75 2 130 36 252 157 111 111 198 241 252 379 20 51 83 170
90 170 5 0 8 5 8 11 0 18 65 95 151 179 95 93 135 123 150 114 7 -4 9 -3 6 3
-8 13 105 69 179 88 76 20 259 32 276 18 7 -6 37 -13 66 -17 72 -9 97 -22 125
-65 47 -72 62 -130 62 -236 0 -96 -1 -103 -38 -175 -43 -84 -130 -179 -217
-238 -88 -59 -228 -179 -330 -282 -144 -145 -228 -269 -279 -412 -77 -217
-167 -364 -336 -548 -126 -138 -287 -390 -334 -525 -32 -92 -110 -195 -277
-365 -144 -148 -422 -352 -507 -374 -15 -3 -25 -10 -23 -15 9 -14 -37 -21 -53
-8 -12 10 -14 9 -8 -5 3 -10 3 -17 -1 -16 -4 1 -17 -3 -29 -10 -12 -6 -28 -9
-36 -6 -8 3 -22 -2 -31 -11 -11 -12 -25 -15 -42 -11 -17 5 -23 3 -19 -4 4 -6
-9 -10 -34 -10 -22 0 -51 -4 -64 -9 -83 -32 -402 -47 -617 -30 -236 18 -306
27 -360 44 -30 9 -68 21 -85 25 -162 42 -202 53 -217 61 -10 5 -24 9 -32 9 -7
0 -19 6 -25 14 -7 8 -30 17 -52 21 -21 4 -39 11 -39 16 0 5 -5 9 -11 9 -21 0
-144 65 -161 85 -10 11 -17 15 -18 8 0 -20 -17 -15 -23 6 -3 11 -17 22 -36 26
-17 3 -39 17 -50 31 -18 23 -39 34 -26 14 3 -6 -1 -7 -9 -4 -9 3 -16 11 -17
18 -1 6 -32 38 -69 71 -37 33 -66 66 -64 73 2 7 0 11 -5 8 -4 -3 -26 20 -47
50 -21 31 -49 68 -61 84 -13 15 -23 32 -23 37 0 5 -8 18 -17 29 -25 27 -98
179 -132 274 -7 19 -17 44 -22 55 -21 49 -69 272 -85 390 -16 131 -20 301 -9
430 3 39 12 207 21 375 17 348 32 637 39 758 9 145 14 244 20 367 3 66 10 201
15 300 5 99 12 252 15 340 3 88 8 183 10 210 2 28 9 174 15 325 12 299 21 369
50 395 11 10 17 22 14 26 -3 5 -1 9 4 9 4 0 17 8 28 19 52 48 193 60 243 19
46 -37 81 -129 101 -265 14 -95 16 -230 12 -858 -1 -247 -2 -536 -2 -642 l0
-192 31 -36 c20 -22 40 -35 56 -35 78 0 90 46 97 375 3 143 8 339 11 435 3 96
7 254 10 350 3 96 7 301 11 455 13 651 21 805 45 878 12 37 26 67 30 67 5 0 9
6 9 13 0 13 46 62 100 107 13 12 32 19 41 17 11 -3 16 0 13 7 -3 7 8 13 27 14
17 1 39 7 49 12 10 6 43 10 73 10 48 0 58 -4 91 -36 102 -99 155 -365 140
-709 -3 -87 1 -317 10 -545 20 -507 25 -638 31 -840 8 -265 14 -329 36 -340
27 -15 53 -12 76 9 18 17 21 33 22 113 1 51 8 401 16 778 8 377 17 870 20
1095 7 478 15 563 58 655 36 75 92 150 113 150 8 0 14 4 14 9 0 5 8 11 18 15
9 3 33 12 52 20 41 17 157 20 194 6z"/>
</g>
</svg>
